<svg width="32" height="32" viewBox="0 0 32 32" fill="none" xmlns="http://www.w3.org/2000/svg">
<path d="M12.0533 28.72C13.3333 29.1066 14.6267 29.3333 16 29.3333C19.5362 29.3333 22.9276 27.9285 25.4281 25.4281C27.9286 22.9276 29.3333 19.5362 29.3333 16C29.3333 14.249 28.9885 12.5152 28.3184 10.8975C27.6483 9.27984 26.6662 7.80998 25.4281 6.57187C24.19 5.33376 22.7201 4.35163 21.1025 3.68157C19.4848 3.0115 17.751 2.66663 16 2.66663C14.249 2.66663 12.5152 3.0115 10.8976 3.68157C9.27989 4.35163 7.81003 5.33376 6.57192 6.57187C4.07143 9.07236 2.66667 12.4637 2.66667 16C2.66667 21.6666 6.22667 26.5333 11.2533 28.4533C11.1333 27.4133 11.0133 25.6933 11.2533 24.5066L12.7867 17.92C12.7867 17.92 12.4 17.1466 12.4 15.92C12.4 14.08 13.5467 12.7066 14.8533 12.7066C16 12.7066 16.5333 13.5466 16.5333 14.6266C16.5333 15.7733 15.7733 17.4133 15.3867 18.9866C15.16 20.2933 16.08 21.44 17.4133 21.44C19.7867 21.44 21.6267 18.9066 21.6267 15.3333C21.6267 12.1333 19.3333 9.94663 16.04 9.94663C12.28 9.94663 10.0667 12.7466 10.0667 15.6933C10.0667 16.84 10.44 18 11.0533 18.76C11.1733 18.84 11.1733 18.9466 11.1333 19.1466L10.7467 20.6C10.7467 20.8266 10.6 20.9066 10.3733 20.7466C8.66667 20 7.68001 17.5733 7.68001 15.6133C7.68001 11.4 10.6667 7.57329 16.4267 7.57329C21.0133 7.57329 24.5867 10.8666 24.5867 15.24C24.5867 19.8266 21.7467 23.5066 17.68 23.5066C16.3867 23.5066 15.12 22.8133 14.6667 22L13.7733 25.16C13.4667 26.3066 12.6267 27.84 12.0533 28.76V28.72Z" fill="white"/>
</svg>
